<svg xmlns="http://www.w3.org/2000/svg" width="19" height="19" viewBox="0 0 19 18" fill="none"><path fill-rule="evenodd" clip-rule="evenodd" d="M18.1398 9.20501C18.1398 8.56701 18.0828 7.95301 17.9758 7.36401H9.49976V10.845H14.3438C14.1348 11.97 13.5008 12.924 12.5478 13.562V15.82H15.4558C17.1578 14.253 18.1398 11.946 18.1398 9.20501Z" fill="#3D82F0"></path><path fill-rule="evenodd" clip-rule="evenodd" d="M9.4993 18.0005C11.9293 18.0005 13.9663 17.1945 15.4553 15.8205L12.5473 13.5615C11.7413 14.1015 10.7103 14.4205 9.4993 14.4205C7.1553 14.4205 5.1713 12.8375 4.4633 10.7104H1.4563V13.0425C2.9373 15.9835 5.9813 18.0005 9.4993 18.0005Z" fill="#31A752"></path><path fill-rule="evenodd" clip-rule="evenodd" d="M4.46342 10.7103C4.28342 10.1703 4.18142 9.59325 4.18142 9.00025C4.18142 8.40725 4.28342 7.83025 4.46342 7.29025V4.95825H1.45642C0.84742 6.17325 0.49942 7.54825 0.49942 9.00025C0.49942 10.4523 0.84742 11.8273 1.45642 13.0423L4.46342 10.7103Z" fill="#F9BA00"></path><path fill-rule="evenodd" clip-rule="evenodd" d="M9.4993 3.58C10.8203 3.58 12.0073 4.034 12.9393 4.926L15.5213 2.345C13.9623 0.892 11.9253 0 9.4993 0C5.9813 0 2.9373 2.017 1.4563 4.959L4.4633 7.29C5.1713 5.163 7.1553 3.58 9.4993 3.58Z" fill="#E64234"></path></svg>