<svg xmlns="http://www.w3.org/2000/svg" width="18" height="18" viewBox="0 0 19 18" fill="none"><path fill-rule="evenodd" clip-rule="evenodd" d="M9.50061 1.96362C5.36061 1.96362 2.00061 4.57362 2.00061 7.78362C2.00061 9.78612 3.29811 11.5336 5.27811 12.5986L4.44561 15.6511C4.4299 15.7118 4.43314 15.7759 4.45488 15.8347C4.47662 15.8936 4.51582 15.9443 4.56724 15.9802C4.61865 16.0161 4.67982 16.0355 4.74254 16.0356C4.80525 16.0358 4.86651 16.0168 4.91811 15.9811L8.56311 13.5586C8.87061 13.5586 9.18561 13.6111 9.50061 13.6111C13.6406 13.6111 17.0006 11.0011 17.0006 7.78362C17.0006 4.56612 13.6406 1.96362 9.50061 1.96362Z" fill="black"></path></svg>